<?xml version="1.0" encoding="UTF-8"?>
<svg width="377px" height="376px" viewBox="0 0 377 376" version="1.1" xmlns="http://www.w3.org/2000/svg" xmlns:xlink="http://www.w3.org/1999/xlink">
    <title>Circle MP</title>
    <defs>
        <filter x="-15.3%" y="-15.3%" width="130.5%" height="130.0%" filterUnits="objectBoundingBox" id="filter-1">
            <feOffset dx="0" dy="0" in="SourceAlpha" result="shadowOffsetOuter1"></feOffset>
            <feGaussianBlur stdDeviation="11" in="shadowOffsetOuter1" result="shadowBlurOuter1"></feGaussianBlur>
            <feColorMatrix values="0 0 0 0 0   0 0 0 0 0   0 0 0 0 0  0 0 0 0.190104167 0" type="matrix" in="shadowBlurOuter1" result="shadowMatrixOuter1"></feColorMatrix>
            <feMerge>
                <feMergeNode in="shadowMatrixOuter1"></feMergeNode>
                <feMergeNode in="SourceGraphic"></feMergeNode>
            </feMerge>
        </filter>
        <ellipse id="path-2" cx="152.5" cy="151.795612" rx="152.5" ry="151.795612"></ellipse>
        <ellipse id="path-4" cx="152.5" cy="151.795612" rx="152.5" ry="151.795612"></ellipse>
        <mask id="mask-5" maskContentUnits="userSpaceOnUse" maskUnits="objectBoundingBox" x="0" y="0" width="305" height="303.591224" fill="white">
            <use xlink:href="#path-4"></use>
        </mask>
        <ellipse id="path-6" cx="152.5" cy="151.795612" rx="151.972022" ry="152.324215"></ellipse>
        <mask id="mask-7" maskContentUnits="userSpaceOnUse" maskUnits="objectBoundingBox" x="0" y="0" width="303.944043" height="304.64843" fill="white">
            <use xlink:href="#path-6"></use>
        </mask>
        <ellipse id="path-8" cx="152.5" cy="151.795612" rx="151.972022" ry="152.324215"></ellipse>
        <mask id="mask-9" maskContentUnits="userSpaceOnUse" maskUnits="objectBoundingBox" x="0" y="0" width="303.944043" height="304.64843" fill="white">
            <use xlink:href="#path-8"></use>
        </mask>
        <ellipse id="path-10" cx="152.5" cy="151.795612" rx="152.5" ry="151.795612"></ellipse>
        <mask id="mask-11" maskContentUnits="userSpaceOnUse" maskUnits="objectBoundingBox" x="0" y="0" width="305" height="303.591224" fill="white">
            <use xlink:href="#path-10"></use>
        </mask>
        <ellipse id="path-12" cx="152.5" cy="151.795612" rx="151.972022" ry="152.324215"></ellipse>
        <mask id="mask-13" maskContentUnits="userSpaceOnUse" maskUnits="objectBoundingBox" x="0" y="0" width="303.944043" height="304.64843" fill="white">
            <use xlink:href="#path-12"></use>
        </mask>
        <ellipse id="path-14" cx="152.5" cy="151.795612" rx="151.972022" ry="152.324215"></ellipse>
        <mask id="mask-15" maskContentUnits="userSpaceOnUse" maskUnits="objectBoundingBox" x="0" y="0" width="303.944043" height="304.64843" fill="white">
            <use xlink:href="#path-14"></use>
        </mask>
        <filter x="-56.1%" y="-72.7%" width="212.2%" height="245.3%" filterUnits="objectBoundingBox" id="filter-16">
            <feOffset dx="0" dy="0" in="SourceAlpha" result="shadowOffsetOuter1"></feOffset>
            <feGaussianBlur stdDeviation="7" in="shadowOffsetOuter1" result="shadowBlurOuter1"></feGaussianBlur>
            <feColorMatrix values="0 0 0 0 0   0 0 0 0 0   0 0 0 0 0  0 0 0 0.45 0" type="matrix" in="shadowBlurOuter1" result="shadowMatrixOuter1"></feColorMatrix>
            <feMerge>
                <feMergeNode in="shadowMatrixOuter1"></feMergeNode>
                <feMergeNode in="SourceGraphic"></feMergeNode>
            </feMerge>
        </filter>
    </defs>
    <g id="Landing-page" stroke="none" stroke-width="1" fill="none" fill-rule="evenodd">
        <g id="IOM-Landing-Page-2" transform="translate(-806.000000, -2862.000000)">
            <g id="Group-13" transform="translate(0.000000, 2830.000000)">
                <g id="Group-9" filter="url(#filter-1)" transform="translate(842.000000, 68.000000)">
                    <g id="Circle-MP">
                        <g id="6-Slices-Pie-Chart">
                            <mask id="mask-3" fill="white">
                                <use xlink:href="#path-2"></use>
                            </mask>
                            <ellipse stroke="#FFFFFF" stroke-width="3.528" cx="152.5" cy="151.795612" rx="154.264" ry="153.559612"></ellipse>
                            <g id="#13486B" stroke-dasharray="159.2976013183594,1520.568017578125" mask="url(#mask-3)" stroke="#E1E8F5" stroke-width="304.1136">
                                <use mask="url(#mask-5)" xlink:href="#path-4"></use>
                            </g>
                            <g id="#F89D29" stroke-dasharray="159.2976013183594,1520.568017578125" mask="url(#mask-3)" transform="translate(152.500000, 151.795612) rotate(-60.000000) translate(-152.500000, -151.795612) " stroke="#C6D6EE" stroke-width="304.1136">
                                <use mask="url(#mask-7)" xlink:href="#path-6"></use>
                            </g>
                            <g id="#4CA246" stroke-dasharray="159.2976013183594,1520.568017578125" mask="url(#mask-3)" transform="translate(152.500000, 151.795612) rotate(-120.000000) translate(-152.500000, -151.795612) " stroke="#A9C0E4" stroke-width="304.1136">
                                <use mask="url(#mask-9)" xlink:href="#path-8"></use>
                            </g>
                            <g id="#C7202F" stroke-dasharray="159.2976013183594,1520.568017578125" mask="url(#mask-3)" transform="translate(152.500000, 151.795612) rotate(-180.000000) translate(-152.500000, -151.795612) " stroke="#8CAFDD" stroke-width="304.1136">
                                <use mask="url(#mask-11)" xlink:href="#path-10"></use>
                            </g>
                            <g id="#F03F2E" stroke-dasharray="159.2976013183594,1520.568017578125" mask="url(#mask-3)" transform="translate(152.500000, 151.795612) rotate(-240.000000) translate(-152.500000, -151.795612) " stroke="#6F9FD5" stroke-width="304.1136">
                                <use mask="url(#mask-13)" xlink:href="#path-12"></use>
                            </g>
                            <g id="#126A9F" stroke-dasharray="159.2976013183594,1520.568017578125" mask="url(#mask-3)" transform="translate(152.500000, 151.795612) rotate(-300.000000) translate(-152.500000, -151.795612) " stroke="#5091CD" stroke-width="304.1136">
                                <use mask="url(#mask-15)" xlink:href="#path-14"></use>
                            </g>
                        </g>
                        <line x1="152.766674" y1="305" x2="152.766674" y2="0" id="Line" stroke="#FFFFFF" stroke-width="3.528" stroke-linecap="round" stroke-linejoin="bevel"></line>
                        <line x1="286.600928" y1="228.926097" x2="19.1067285" y2="76.073903" id="Line" stroke="#FFFFFF" stroke-width="3.528" stroke-linecap="round" stroke-linejoin="bevel"></line>
                        <line x1="22.6450116" y1="225.404157" x2="283.062645" y2="75.369515" id="Line" stroke="#FFFFFF" stroke-width="3.528" stroke-linecap="round" stroke-linejoin="bevel"></line>
                        <ellipse id="Oval-6" stroke="#FFFFFF" stroke-width="3.528" fill="#F0F2F5" cx="152.853828" cy="152.147806" rx="47.0643063" ry="46.8387714"></ellipse>
                        <g id="Element-6" transform="translate(179.037123, 35.219400)" fill-rule="nonzero">
                            <polygon id="Rectangle-path" fill="#FFFFFF" points="0 42.7288627 35.5040168 42.7288627 35.5040168 49.4101031 0 49.4101031"></polygon>
                            <polygon id="Rectangle-path" fill="#FAB81C" points="3.49626595 29.1666107 31.9964726 29.1666107 31.9964726 42.7288627 3.49626595 42.7288627"></polygon>
                            <polygon id="Rectangle-path" fill="#FFFFFF" points="15.2595091 29.1666107 20.2445077 29.1666107 20.2445077 42.7288627 15.2595091 42.7288627"></polygon>
                            <rect id="Rectangle-path" fill="#FFFFFF" x="3.49626595" y="29.1666107" width="4.98499855" height="13.562252"></rect>
                            <polygon id="Rectangle-path" fill="#FFFFFF" points="27.0227523 29.1666107 32.0077509 29.1666107 32.0077509 42.7288627 27.0227523 42.7288627"></polygon>
                            <polygon id="Rectangle-path" fill="#94A0B5" points="15.2595091 29.1666107 20.2445077 29.1666107 20.2445077 31.552768 15.2595091 31.552768"></polygon>
                            <polygon id="Rectangle-path" fill="#94A0B5" points="3.49626595 29.1666107 8.4812645 29.1666107 8.4812645 31.552768 3.49626595 31.552768"></polygon>
                            <polygon id="Rectangle-path" fill="#94A0B5" points="27.0227523 29.1666107 32.0077509 29.1666107 32.0077509 31.552768 27.0227523 31.552768"></polygon>
                            <polygon id="Rectangle-path" fill="#485465" points="0 44.9485439 35.5040168 44.9485439 35.5040168 47.1793235 0 47.1793235"></polygon>
                            <path d="M34.0942322,25.1156926 L1.3872281,25.1156926 C1.3872281,25.1156926 3.48498767,10.610076 17.5941125,10.610076 C31.7032374,10.610076 34.0942322,25.1156926 34.0942322,25.1156926 Z" id="Shape" fill="#485465"></path>
                            <polygon id="Shape" fill="#FFFFFF" points="35.5040168 29.0001346 0 29.0001346 0 25.1045942 17.9324608 19.466604 35.5040168 25.1045942"></polygon>
                            <path d="M30.5979662,8.98970878 L28.9175029,8.98970878 C27.2933443,8.98678163 25.6876794,8.65035802 24.203183,8.00195066 L24.203183,8.00195066 C22.719937,7.34975913 21.1134463,7.01316248 19.4888631,7.01419253 L17.6617822,7.01419253 L17.6617822,0 L19.4775848,0 C21.0596886,0.00158793842 22.6250498,0.318728309 24.079122,0.932266096 L24.3159658,1.04325015 C25.7700379,1.65678794 27.3353992,1.97392831 28.9175029,1.97551625 L30.5979662,1.97551625 L30.5979662,8.98970878 Z" id="Shape" fill="#FFFFFF"></path>
                            <path d="M16.0489885,8.44588689 L19.4324717,8.44588689 C19.9868368,8.44588689 20.4362384,8.88812127 20.4362384,9.43364502 L20.4362384,11.3092756 L15.0565001,11.3092756 L15.0565001,9.42254661 C15.0625967,8.88565698 15.5033976,8.45188622 16.0489885,8.44588689 L16.0489885,8.44588689 Z" id="Shape" fill="#FFFFFF"></path>
                        </g>
                        <g id="Element-5" transform="translate(82.795651, 47.388222)">
                            <path d="M29.4139198,0.0305779414 C25.6346192,0.0389500535 22.1319911,2.0461476 20.1683862,5.32877459 C17.6366443,1.07691988 12.6239156,-0.933388841 7.91841931,0.416038092 C3.21292306,1.76546502 -0.0272507517,6.14251433 0,11.1125493 C0,17.2308335 15.328015,39.5674263 20.1683862,39.5674263 C25.0087574,39.5674263 40.3365997,17.2308335 40.3365997,11.1125493 C40.3365997,8.16968477 39.185149,5.34766648 37.1361367,3.26877221 C35.0871243,1.18987794 32.3088407,0.024846949 29.4139198,0.0305779414 Z" id="Shape" fill="#FFFFFF" fill-rule="nonzero"></path>
                            <path d="M33.9676901,1.1096404 C36.5577134,4.53026837 38.7549871,16.324421 17.8118897,38.5638982 C18.4653297,39.1419668 19.2686687,39.5165732 20.1259268,39.6429606 C24.9556832,39.6429606 40.2942129,17.3063678 40.2942129,11.1880837 C40.3096632,6.85879947 37.8366496,2.91912918 33.9676901,1.1096404 Z" id="Shape" fill="#DAE6E6" fill-rule="nonzero"></path>
                            <polyline id="Shape" stroke="#FAB81C" stroke-width="2.1168" points="0.361077621 21.9139645 10.116124 21.9139645 14.2983746 12.0405431 17.6845115 30.0177235 21.4633978 21.9139645 37.3962864 21.9139645"></polyline>
                        </g>
                        <g id="Element-4" transform="translate(21.933520, 136.885027)" fill-rule="nonzero">
                            <path d="M32.0411312,17.4691702 L35.6684173,14.6480093 L32.4485797,11.5437212 L26.7542373,16.8826923 C28.1096091,18.4255177 30.3908647,18.6785786 32.0411312,17.4691702 Z" id="Shape" fill="#B9C6DE"></path>
                            <path d="M26.7542373,16.8826923 C28.1096091,18.4255177 30.3908647,18.6785786 32.0411312,17.4691702 L37.6062825,13.1312562 L47.6732439,22.9598166 L50.9030192,20.5936817 L43.817389,7.72150328 L38.7590639,7.72150328 C37.2337115,7.73831709 35.7710602,8.34156351 34.6647025,9.41015513 L26.7542373,16.8826923 Z" id="Shape" fill="#FFFFFF"></path>
                            <polygon id="Rectangle-path" fill="#FFC872" transform="translate(8.630406, 10.878356) rotate(28.700000) translate(-8.630406, -10.878356) " points="3.90329656 1.62550285 13.3936851 1.6070185 13.3575156 20.1312092 3.86712703 20.1496936"></polygon>
                            <polygon id="Rectangle-path" fill="#FFFFFF" transform="translate(54.331009, 10.419757) rotate(151.300000) translate(-54.331009, -10.419757) " points="49.5677302 1.14841914 59.0581188 1.16690349 59.0942883 19.6910942 49.6038998 19.6726098"></polygon>
                            <path d="M28.4337205,28.8549305 C28.2758408,28.71155 28.1815345,28.5093895 28.1721799,28.2942768 C28.1628254,28.079164 28.2392149,27.8693185 28.3840317,27.7123098 C28.6804567,27.3829252 29.1831414,27.3602932 29.5069997,27.6617514 L35.5889152,33.3546316 L35.638604,33.3546316 L38.1528599,31.332294 L31.7728114,25.4169567 C31.4572238,25.104223 31.4505499,24.5903907 31.7579047,24.2692802 C32.0652595,23.9481697 32.5702541,23.9413789 32.8858416,24.2541126 L39.4944589,30.3817954 L42.0285903,28.4706864 L35.0721511,21.9890946 C34.7595979,21.6851105 34.7431034,21.1827006 35.0350221,20.8581706 C35.3269409,20.5336406 35.8202366,20.5059839 36.1454303,20.7959155 L43.3801271,27.4898527 L45.9937607,25.4675152 L36.5528789,16.3063261 L32.6572729,19.3398324 C29.9662525,21.1517515 26.3421127,20.4106233 24.5480523,17.6815157 L23.8822217,16.6703469 L30.5604034,10.4112122 L29.7057551,9.73372913 C28.4554816,8.52321408 26.8005169,7.84024775 25.0747542,7.82262016 L19.5493539,7.82262016 L11.8177685,21.7767492 L27.58901,33.3546316 C29.4828561,34.7442001 31.9469092,35.0423094 34.1081874,34.1433432 L28.4337205,28.8549305 Z" id="Shape" fill="#FFC872"></path>
                        </g>
                        <g id="Element-3" transform="translate(75.011601, 214.133949)">
                            <polygon id="Path-5" fill="#FAB81C" points="41.9480662 11.3332874 44.9339206 18.0395009 47.0207226 24.3733666 44.9339206 28.0300435 40.7591251 29.9641177 36.1010493 28.8605135 36.5410448 22.9250837 37.1907134 17.2303756 38.8283864 13.9401174"></polygon>
                            <path d="M44.7791752,15.2662079 C46.4447052,10.9791221 44.4707438,6.90116249 42.4865013,4.63214391 C40.7941508,2.51819719 38.5647259,0.916169858 36.0402837,0 C36.8532366,2.18124906 37.445738,4.4410051 37.8086241,6.74431789 C38.3021144,9.73482163 35.1047082,11.177792 34.7243094,13.2795096 C34.3124753,15.759692 34.3963948,18.2988551 34.9710546,20.7453127 C35.4439828,22.9306808 34.9710546,26.4858251 37.3151337,27.6255626 L39.9059581,29.3194843 C40.2251921,29.362059 40.5477892,29.2715497 40.8004093,29.0685329 L39.5975266,33.5438322 C40.2552796,33.2733876 40.8302129,32.8294229 41.2630565,32.2577065 C41.9621678,31.5675902 45.0567636,31.2120758 46.7222935,29.2672027 C48.372338,27.6253722 49.2422875,25.33715 49.1074968,22.9934187 C48.8504706,17.7652653 50.0636344,15.7681107 51.6057917,15.6740039 C49.6125214,14.1693079 46.9319364,14.00918 44.7791752,15.2662079 Z M42.5481876,25.0951363 C42.2500372,26.4753688 41.355586,27.7824072 39.895677,27.4373491 C37.7777809,26.9459026 36.6468656,24.8023597 36.328153,22.8052051 C36.0770813,21.4136628 36.1474739,19.9818129 36.533774,18.6226824 C36.6468656,18.267168 37.8291862,20.8185068 37.9731209,20.4943613 C38.0614262,17.4864611 39.3052652,14.6335465 41.4378343,12.5475682 C41.4231827,14.0186338 41.3339619,15.4879528 41.1705271,16.9496733 C40.9032198,21.268128 43.4220768,20.9648951 42.5481876,25.0951363 Z" id="Shape" fill="#F6F5F2" fill-rule="nonzero"></path>
                            <ellipse id="Oval" fill="#96A6CD" fill-rule="nonzero" cx="20.3822462" cy="28.8803194" rx="20.3564768" ry="20.7034875"></ellipse>
                            <g id="Group" transform="translate(0.000000, 8.030444)" stroke="#485465" stroke-width="0.7056">
                                <line x1="2.54115484" y1="10.498132" x2="38.2211999" y2="10.498132" id="Shape"></line>
                                <line x1="2.54115484" y1="31.2016195" x2="37.5135433" y2="31.2016195" id="Shape"></line>
                                <line x1="0" y1="20.8498758" x2="40.7539444" y2="20.8498758" id="Shape"></line>
                                <path d="M20.4130893,0 C20.4130893,0 11.920943,3.47149386 11.920943,20.8498758 C11.920943,38.2282577 20.4130893,41.6997515 20.4130893,41.6997515" id="Shape"></path>
                                <path d="M20.5673051,0 C20.5673051,0 29.0491704,3.47149386 29.0491704,20.8498758 C29.0491704,38.2282577 20.5673051,41.6997515 20.5673051,41.6997515" id="Shape"></path>
                            </g>
                            <path d="M40.3891674,32.6759588 C40.3891674,32.6759588 29.4604124,47.2415941 16.4960097,28.8803194 L19.713978,27.3014171 L7.37671935,23.1188943 L3.71666594,35.6664625 L6.80098061,33.878434 C6.80098061,33.878434 17.4932715,49.7720204 32.6064133,45.4744783 C36.8113206,42.4692366 39.6235796,37.8445558 40.3891674,32.6759588 L40.3891674,32.6759588 Z" id="Shape" fill="#F6F5F2" fill-rule="nonzero"></path>
                        </g>
                        <g id="Element-2" transform="translate(177.624851, 216.247113)">
                            <polygon id="Shape" fill="#FFFFFF" fill-rule="nonzero" points="45.9567249 40.2782405 17.2526859 40.2782405 17.2526859 0 39.9307501 0 45.9567249 5.86670724"></polygon>
                            <polygon id="Shape" fill="#485465" fill-rule="nonzero" points="39.9307501 5.812686 39.9307501 0 45.9567249 5.86670724"></polygon>
                            <line x1="22.0609767" y1="11.6901975" x2="32.9056499" y2="11.6901975" id="Shape" stroke="#FAB81C" stroke-width="2.1168"></line>
                            <line x1="22.0609767" y1="19.1559336" x2="32.9056499" y2="19.1559336" id="Shape" stroke="#FAB81C" stroke-width="2.1168"></line>
                            <line x1="22.0609767" y1="26.6108654" x2="32.9056499" y2="26.6108654" id="Shape" stroke="#FAB81C" stroke-width="2.1168"></line>
                            <path d="M37.6514953,10.0047346 C38.0860364,10.6087728 38.5700543,11.1726922 39.0981456,11.6901975 L41.3669928,8.1464038" id="Shape" stroke="#FAB81C" stroke-width="1.4112"></path>
                            <path d="M37.6514953,17.4704707 C38.0860364,18.0745089 38.5700543,18.6384283 39.0981456,19.1559336 L41.3669928,15.6013357" id="Shape" stroke="#FAB81C" stroke-width="1.4112"></path>
                            <path d="M37.6514953,24.9362068 C38.0860665,25.5368804 38.5701045,26.0972082 39.0981456,26.6108654 L41.3669928,23.0670718" id="Shape" stroke="#FAB81C" stroke-width="1.4112"></path>
                            <path d="M29.0028164,18.5076786 L14.6195743,14.099545 L0.246739666,18.5076786 C-2.21985107,43.9840979 14.6195743,49.9696519 14.6195743,49.9696519 C14.6195743,49.9696519 31.4589996,43.9840979 29.0028164,18.5076786 Z" id="Shape" fill="#485465" fill-rule="nonzero"></path>
                            <path d="M8.510339,30.9433693 C10.3628839,33.5255848 14.7548725,38.1389992 14.7548725,38.1389992 L23.5596647,24.3635816" id="Shape" stroke="#FFC872" stroke-width="2.1168"></path>
                        </g>
                        <g id="Element-1" filter="url(#filter-16)" transform="translate(232.111369, 131.720554)">
                            <polygon id="Shape" fill="#485465" fill-rule="nonzero" points="4.97799824 4.3315277 24.8153769 0 43.9723178 4.3315277 43.9723178 6.60667357 4.97799824 6.60667357"></polygon>
                            <polyline id="Shape" stroke="#485465" stroke-width="0.7056" points="31.5273222 29.7300311 39.3003306 5.78083937 47.2909833 29.7300311"></polyline>
                            <polyline id="Shape" stroke="#485465" stroke-width="0.7056" points="0.829666373 29.7300311 8.6026748 5.78083937 16.5933275 29.7300311"></polyline>
                            <path d="M0,28.0783627 L17.4229938,28.0783627 L17.4229938,34.0425064 C17.4229938,35.7656527 16.0834151,37.1625388 14.430961,37.1625388 L2.99203282,37.1625388 C1.33957872,37.1625388 0,35.7656527 0,34.0425064 L0,28.0783627 Z" id="Shape" fill="#485465" fill-rule="nonzero"></path>
                            <path d="M30.6976558,28.0783627 L48.1206497,28.0783627 L48.1206497,34.0425064 C48.1206497,35.7656527 46.7810709,37.1625388 45.1286168,37.1625388 L33.6998656,37.1625388 C32.0474115,37.1625388 30.7078328,35.7656527 30.7078328,34.0425064 L30.7078328,28.0783627 L30.6976558,28.0783627 Z" id="Shape" fill="#485465" fill-rule="nonzero"></path>
                            <ellipse id="Oval-8" fill="#FFC872" cx="24.8899912" cy="3.30333678" rx="1.65933275" ry="1.65166839"></ellipse>
                        </g>
                    </g>
                </g>
            </g>
        </g>
    </g>
</svg>